ISO-10303-21;
HEADER;
FILE_DESCRIPTION(('ViewDefinition [ReferenceView]'),'2;1');
FILE_NAME('harbour-pavilion.ifc','2026-09-19T00:00:00',('ifc-lens'),('ifc-lens'),'ifc-lens builder','ifc-lens','');
FILE_SCHEMA(('IFC4'));
ENDSEC;
DATA;
#1=IFCPERSON($,'Tester',$,$,$,$,$,$);
#2=IFCORGANIZATION($,'ifc-lens',$,$,$);
#3=IFCPERSONANDORGANIZATION(#1,#2,$);
#4=IFCAPPLICATION(#2,'1.0','ifc-lens builder','ifc-lens');
#5=IFCOWNERHISTORY(#3,#4,$,.ADDED.,$,$,$,0);
#6=IFCSIUNIT(*,.LENGTHUNIT.,$,.METRE.);
#7=IFCSIUNIT(*,.AREAUNIT.,$,.SQUARE_METRE.);
#8=IFCSIUNIT(*,.VOLUMEUNIT.,$,.CUBIC_METRE.);
#9=IFCSIUNIT(*,.PLANEANGLEUNIT.,$,.RADIAN.);
#10=IFCUNITASSIGNMENT((#6,#7,#8,#9));
#11=IFCCARTESIANPOINT((0.,0.,0.));
#12=IFCAXIS2PLACEMENT3D(#11,$,$);
#13=IFCGEOMETRICREPRESENTATIONCONTEXT($,'Model',3,0.00001,#12,$);
#14=IFCGEOMETRICREPRESENTATIONSUBCONTEXT('Body','Model',*,*,*,*,#13,$,.MODEL_VIEW.,$);
#15=IFCPROJECT('0000000000000000000001',#5,'Harbour pavilion',$,$,$,$,(#13),#10);
#16=IFCAXIS2PLACEMENT3D(#11,$,$);
#17=IFCLOCALPLACEMENT($,#16);
#18=IFCSITE('0000000000000000000002',#5,'Site',$,$,#17,$,$,.ELEMENT.,$,$,$,$,$);
#19=IFCAXIS2PLACEMENT3D(#11,$,$);
#20=IFCLOCALPLACEMENT(#17,#19);
#21=IFCBUILDING('0000000000000000000003',#5,'Building',$,$,#20,$,$,.ELEMENT.,$,$,$);
#22=IFCAXIS2PLACEMENT3D(#11,$,$);
#23=IFCLOCALPLACEMENT(#20,#22);
#24=IFCBUILDINGSTOREY('0000000000000000000004',#5,'Ground floor',$,$,#23,$,$,.ELEMENT.,0.);
#25=IFCRELAGGREGATES('0000000000000000000005',#5,$,$,#15,(#18));
#26=IFCRELAGGREGATES('0000000000000000000006',#5,$,$,#18,(#21));
#27=IFCRELAGGREGATES('0000000000000000000007',#5,$,$,#21,(#24));
#28=IFCCOLOURRGB($,0.93,0.91,0.86);
#29=IFCSURFACESTYLERENDERING(#28,0.,$,$,$,$,$,$,.NOTDEFINED.);
#30=IFCSURFACESTYLE($,.BOTH.,(#29));
#31=IFCCOLOURRGB($,0.55,0.74,0.86);
#32=IFCSURFACESTYLERENDERING(#31,0.55,$,$,$,$,$,$,.NOTDEFINED.);
#33=IFCSURFACESTYLE($,.BOTH.,(#32));
#34=IFCCOLOURRGB($,0.62,0.45,0.3);
#35=IFCSURFACESTYLERENDERING(#34,0.,$,$,$,$,$,$,.NOTDEFINED.);
#36=IFCSURFACESTYLE($,.BOTH.,(#35));
#37=IFCCOLOURRGB($,0.36,0.4,0.45);
#38=IFCSURFACESTYLERENDERING(#37,0.,$,$,$,$,$,$,.NOTDEFINED.);
#39=IFCSURFACESTYLE($,.BOTH.,(#38));
#40=IFCCOLOURRGB($,0.7,0.7,0.68);
#41=IFCSURFACESTYLERENDERING(#40,0.,$,$,$,$,$,$,.NOTDEFINED.);
#42=IFCSURFACESTYLE($,.BOTH.,(#41));
#43=IFCCOLOURRGB($,0.72,0.45,0.2);
#44=IFCSURFACESTYLERENDERING(#43,0.,$,$,$,$,$,$,.NOTDEFINED.);
#45=IFCSURFACESTYLE($,.BOTH.,(#44));
#46=IFCCOLOURRGB($,0.28,0.33,0.38);
#47=IFCSURFACESTYLERENDERING(#46,0.,$,$,$,$,$,$,.NOTDEFINED.);
#48=IFCSURFACESTYLE($,.BOTH.,(#47));
#49=IFCCARTESIANPOINT((0.,0.));
#50=IFCCARTESIANPOINT((1.,0.));
#51=IFCCARTESIANPOINT((1.,1.));
#52=IFCCARTESIANPOINT((0.,1.));
#53=IFCPOLYLINE((#49,#50,#51,#52,#49));
#54=IFCCARTESIANPOINT((0.06,0.06));
#55=IFCCARTESIANPOINT((0.94,0.06));
#56=IFCCARTESIANPOINT((0.94,0.94));
#57=IFCCARTESIANPOINT((0.06,0.94));
#58=IFCPOLYLINE((#54,#55,#56,#57,#54));
#59=IFCARBITRARYPROFILEDEFWITHVOIDS(.AREA.,$,#53,(#58));
#60=IFCCARTESIANPOINT((0.,0.11,0.));
#61=IFCDIRECTION((0.,1.,0.));
#62=IFCDIRECTION((1.,0.,0.));
#63=IFCAXIS2PLACEMENT3D(#60,#61,#62);
#64=IFCDIRECTION((0.,0.,1.));
#65=IFCEXTRUDEDAREASOLID(#59,#63,#64,0.08);
#66=IFCSTYLEDITEM(#65,(#36),$);
#67=IFCCARTESIANPOINT((0.44,0.01));
#68=IFCAXIS2PLACEMENT2D(#67,$);
#69=IFCRECTANGLEPROFILEDEF(.AREA.,$,#68,0.88,0.02);
#70=IFCCARTESIANPOINT((0.06,0.14,0.06));
#71=IFCAXIS2PLACEMENT3D(#70,$,$);
#72=IFCEXTRUDEDAREASOLID(#69,#71,#64,0.88);
#73=IFCSTYLEDITEM(#72,(#33),$);
#74=IFCSHAPEREPRESENTATION(#14,'Body','SweptSolid',(#65,#72));
#75=IFCAXIS2PLACEMENT3D(#11,$,$);
#76=IFCREPRESENTATIONMAP(#75,#74);
#77=IFCAXIS2PLACEMENT3D(#11,#64,#62);
#78=IFCLOCALPLACEMENT(#23,#77);
#79=IFCCARTESIANPOINT((6.,0.15));
#80=IFCAXIS2PLACEMENT2D(#79,$);
#81=IFCRECTANGLEPROFILEDEF(.AREA.,$,#80,12.,0.3);
#82=IFCAXIS2PLACEMENT3D(#11,$,$);
#83=IFCEXTRUDEDAREASOLID(#81,#82,#64,3.2);
#84=IFCSTYLEDITEM(#83,(#30),$);
#85=IFCCARTESIANPOINT((0.,0.15,0.));
#86=IFCCARTESIANPOINT((12.,0.15,0.));
#87=IFCPOLYLINE((#85,#86));
#88=IFCSHAPEREPRESENTATION(#13,'Axis','Curve2D',(#87));
#89=IFCSHAPEREPRESENTATION(#14,'Body','SweptSolid',(#83));
#90=IFCPRODUCTDEFINITIONSHAPE($,$,(#88,#89));
#91=IFCWALL('0000000000000000000008',#5,'South facade',$,$,#78,#90,$,.STANDARD.);
#92=IFCCARTESIANPOINT((1.5,-0.1,0.9));
#93=IFCAXIS2PLACEMENT3D(#92,$,$);
#94=IFCLOCALPLACEMENT(#78,#93);
#95=IFCCARTESIANPOINT((1.,0.25));
#96=IFCAXIS2PLACEMENT2D(#95,$);
#97=IFCRECTANGLEPROFILEDEF(.AREA.,$,#96,2.,0.5);
#98=IFCAXIS2PLACEMENT3D(#11,$,$);
#99=IFCEXTRUDEDAREASOLID(#97,#98,#64,1.6);
#100=IFCSHAPEREPRESENTATION(#14,'Body','SweptSolid',(#99));
#101=IFCPRODUCTDEFINITIONSHAPE($,$,(#100));
#102=IFCOPENINGELEMENT('0000000000000000000009',#5,'Opening',$,$,#94,#101,$,.OPENING.);
#103=IFCRELVOIDSELEMENT('000000000000000000000A',#5,$,$,#91,#102);
#104=IFCCARTESIANPOINT((1.5,0.,0.9));
#105=IFCAXIS2PLACEMENT3D(#104,$,$);
#106=IFCLOCALPLACEMENT(#78,#105);
#107=IFCCARTESIANTRANSFORMATIONOPERATOR3DNONUNIFORM($,$,#11,2.,$,1.,1.6);
#108=IFCMAPPEDITEM(#76,#107);
#109=IFCSHAPEREPRESENTATION(#14,'Body','MappedRepresentation',(#108));
#110=IFCPRODUCTDEFINITIONSHAPE($,$,(#109));
#111=IFCWINDOW('000000000000000000000B',#5,'South facade window 1',$,$,#106,#110,$,1.6,2.,.WINDOW.,.SINGLE_PANEL.,$);
#112=IFCRELFILLSELEMENT('000000000000000000000C',#5,$,$,#102,#111);
#113=IFCCARTESIANPOINT((5.,-0.1,0.9));
#114=IFCAXIS2PLACEMENT3D(#113,$,$);
#115=IFCLOCALPLACEMENT(#78,#114);
#116=IFCAXIS2PLACEMENT2D(#95,$);
#117=IFCRECTANGLEPROFILEDEF(.AREA.,$,#116,2.,0.5);
#118=IFCAXIS2PLACEMENT3D(#11,$,$);
#119=IFCEXTRUDEDAREASOLID(#117,#118,#64,1.6);
#120=IFCSHAPEREPRESENTATION(#14,'Body','SweptSolid',(#119));
#121=IFCPRODUCTDEFINITIONSHAPE($,$,(#120));
#122=IFCOPENINGELEMENT('000000000000000000000D',#5,'Opening',$,$,#115,#121,$,.OPENING.);
#123=IFCRELVOIDSELEMENT('000000000000000000000E',#5,$,$,#91,#122);
#124=IFCCARTESIANPOINT((5.,0.,0.9));
#125=IFCAXIS2PLACEMENT3D(#124,$,$);
#126=IFCLOCALPLACEMENT(#78,#125);
#127=IFCCARTESIANTRANSFORMATIONOPERATOR3DNONUNIFORM($,$,#11,2.,$,1.,1.6);
#128=IFCMAPPEDITEM(#76,#127);
#129=IFCSHAPEREPRESENTATION(#14,'Body','MappedRepresentation',(#128));
#130=IFCPRODUCTDEFINITIONSHAPE($,$,(#129));
#131=IFCWINDOW('000000000000000000000F',#5,'South facade window 2',$,$,#126,#130,$,1.6,2.,.WINDOW.,.SINGLE_PANEL.,$);
#132=IFCRELFILLSELEMENT('000000000000000000000G',#5,$,$,#122,#131);
#133=IFCCARTESIANPOINT((8.5,-0.1,0.9));
#134=IFCAXIS2PLACEMENT3D(#133,$,$);
#135=IFCLOCALPLACEMENT(#78,#134);
#136=IFCAXIS2PLACEMENT2D(#95,$);
#137=IFCRECTANGLEPROFILEDEF(.AREA.,$,#136,2.,0.5);
#138=IFCAXIS2PLACEMENT3D(#11,$,$);
#139=IFCEXTRUDEDAREASOLID(#137,#138,#64,1.6);
#140=IFCSHAPEREPRESENTATION(#14,'Body','SweptSolid',(#139));
#141=IFCPRODUCTDEFINITIONSHAPE($,$,(#140));
#142=IFCOPENINGELEMENT('000000000000000000000H',#5,'Opening',$,$,#135,#141,$,.OPENING.);
#143=IFCRELVOIDSELEMENT('000000000000000000000I',#5,$,$,#91,#142);
#144=IFCCARTESIANPOINT((8.5,0.,0.9));
#145=IFCAXIS2PLACEMENT3D(#144,$,$);
#146=IFCLOCALPLACEMENT(#78,#145);
#147=IFCCARTESIANTRANSFORMATIONOPERATOR3DNONUNIFORM($,$,#11,2.,$,1.,1.6);
#148=IFCMAPPEDITEM(#76,#147);
#149=IFCSHAPEREPRESENTATION(#14,'Body','MappedRepresentation',(#148));
#150=IFCPRODUCTDEFINITIONSHAPE($,$,(#149));
#151=IFCWINDOW('000000000000000000000J',#5,'South facade window 3',$,$,#146,#150,$,1.6,2.,.WINDOW.,.SINGLE_PANEL.,$);
#152=IFCRELFILLSELEMENT('000000000000000000000K',#5,$,$,#142,#151);
#153=IFCCARTESIANPOINT((0.,8.,0.));
#154=IFCAXIS2PLACEMENT3D(#153,#64,#62);
#155=IFCLOCALPLACEMENT(#23,#154);
#156=IFCAXIS2PLACEMENT2D(#79,$);
#157=IFCRECTANGLEPROFILEDEF(.AREA.,$,#156,12.,0.3);
#158=IFCAXIS2PLACEMENT3D(#11,$,$);
#159=IFCEXTRUDEDAREASOLID(#157,#158,#64,3.2);
#160=IFCSTYLEDITEM(#159,(#30),$);
#161=IFCPOLYLINE((#85,#86));
#162=IFCSHAPEREPRESENTATION(#13,'Axis','Curve2D',(#161));
#163=IFCSHAPEREPRESENTATION(#14,'Body','SweptSolid',(#159));
#164=IFCPRODUCTDEFINITIONSHAPE($,$,(#162,#163));
#165=IFCWALL('000000000000000000000L',#5,'North facade',$,$,#155,#164,$,.STANDARD.);
#166=IFCCARTESIANPOINT((2.,-0.1,0.6));
#167=IFCAXIS2PLACEMENT3D(#166,$,$);
#168=IFCLOCALPLACEMENT(#155,#167);
#169=IFCCARTESIANPOINT((1.5,0.25));
#170=IFCAXIS2PLACEMENT2D(#169,$);
#171=IFCRECTANGLEPROFILEDEF(.AREA.,$,#170,3.,0.5);
#172=IFCAXIS2PLACEMENT3D(#11,$,$);
#173=IFCEXTRUDEDAREASOLID(#171,#172,#64,2.);
#174=IFCSHAPEREPRESENTATION(#14,'Body','SweptSolid',(#173));
#175=IFCPRODUCTDEFINITIONSHAPE($,$,(#174));
#176=IFCOPENINGELEMENT('000000000000000000000M',#5,'Opening',$,$,#168,#175,$,.OPENING.);
#177=IFCRELVOIDSELEMENT('000000000000000000000N',#5,$,$,#165,#176);
#178=IFCCARTESIANPOINT((2.,0.,0.6));
#179=IFCAXIS2PLACEMENT3D(#178,$,$);
#180=IFCLOCALPLACEMENT(#155,#179);
#181=IFCCARTESIANTRANSFORMATIONOPERATOR3DNONUNIFORM($,$,#11,3.,$,1.,2.);
#182=IFCMAPPEDITEM(#76,#181);
#183=IFCSHAPEREPRESENTATION(#14,'Body','MappedRepresentation',(#182));
#184=IFCPRODUCTDEFINITIONSHAPE($,$,(#183));
#185=IFCWINDOW('000000000000000000000O',#5,'North facade window 4',$,$,#180,#184,$,2.,3.,.WINDOW.,.SINGLE_PANEL.,$);
#186=IFCRELFILLSELEMENT('000000000000000000000P',#5,$,$,#176,#185);
#187=IFCCARTESIANPOINT((7.,-0.1,0.6));
#188=IFCAXIS2PLACEMENT3D(#187,$,$);
#189=IFCLOCALPLACEMENT(#155,#188);
#190=IFCAXIS2PLACEMENT2D(#169,$);
#191=IFCRECTANGLEPROFILEDEF(.AREA.,$,#190,3.,0.5);
#192=IFCAXIS2PLACEMENT3D(#11,$,$);
#193=IFCEXTRUDEDAREASOLID(#191,#192,#64,2.);
#194=IFCSHAPEREPRESENTATION(#14,'Body','SweptSolid',(#193));
#195=IFCPRODUCTDEFINITIONSHAPE($,$,(#194));
#196=IFCOPENINGELEMENT('000000000000000000000Q',#5,'Opening',$,$,#189,#195,$,.OPENING.);
#197=IFCRELVOIDSELEMENT('000000000000000000000R',#5,$,$,#165,#196);
#198=IFCCARTESIANPOINT((7.,0.,0.6));
#199=IFCAXIS2PLACEMENT3D(#198,$,$);
#200=IFCLOCALPLACEMENT(#155,#199);
#201=IFCCARTESIANTRANSFORMATIONOPERATOR3DNONUNIFORM($,$,#11,3.,$,1.,2.);
#202=IFCMAPPEDITEM(#76,#201);
#203=IFCSHAPEREPRESENTATION(#14,'Body','MappedRepresentation',(#202));
#204=IFCPRODUCTDEFINITIONSHAPE($,$,(#203));
#205=IFCWINDOW('000000000000000000000S',#5,'North facade window 5',$,$,#200,#204,$,2.,3.,.WINDOW.,.SINGLE_PANEL.,$);
#206=IFCRELFILLSELEMENT('000000000000000000000T',#5,$,$,#196,#205);
#207=IFCCARTESIANPOINT((0.3,0.,0.));
#208=IFCAXIS2PLACEMENT3D(#207,#64,#61);
#209=IFCLOCALPLACEMENT(#23,#208);
#210=IFCCARTESIANPOINT((4.,0.15));
#211=IFCAXIS2PLACEMENT2D(#210,$);
#212=IFCRECTANGLEPROFILEDEF(.AREA.,$,#211,8.,0.3);
#213=IFCAXIS2PLACEMENT3D(#11,$,$);
#214=IFCEXTRUDEDAREASOLID(#212,#213,#64,3.2);
#215=IFCSTYLEDITEM(#214,(#30),$);
#216=IFCCARTESIANPOINT((8.,0.15,0.));
#217=IFCPOLYLINE((#85,#216));
#218=IFCSHAPEREPRESENTATION(#13,'Axis','Curve2D',(#217));
#219=IFCSHAPEREPRESENTATION(#14,'Body','SweptSolid',(#214));
#220=IFCPRODUCTDEFINITIONSHAPE($,$,(#218,#219));
#221=IFCWALL('000000000000000000000U',#5,'West wall',$,$,#209,#220,$,.STANDARD.);
#222=IFCCARTESIANPOINT((12.,0.,0.));
#223=IFCAXIS2PLACEMENT3D(#222,#64,#61);
#224=IFCLOCALPLACEMENT(#23,#223);
#225=IFCAXIS2PLACEMENT2D(#210,$);
#226=IFCRECTANGLEPROFILEDEF(.AREA.,$,#225,8.,0.3);
#227=IFCAXIS2PLACEMENT3D(#11,$,$);
#228=IFCEXTRUDEDAREASOLID(#226,#227,#64,3.2);
#229=IFCSTYLEDITEM(#228,(#30),$);
#230=IFCPOLYLINE((#85,#216));
#231=IFCSHAPEREPRESENTATION(#13,'Axis','Curve2D',(#230));
#232=IFCSHAPEREPRESENTATION(#14,'Body','SweptSolid',(#228));
#233=IFCPRODUCTDEFINITIONSHAPE($,$,(#231,#232));
#234=IFCWALL('000000000000000000000V',#5,'East wall',$,$,#224,#233,$,.STANDARD.);
#235=IFCCARTESIANPOINT((3.,-0.1,0.));
#236=IFCAXIS2PLACEMENT3D(#235,$,$);
#237=IFCLOCALPLACEMENT(#224,#236);
#238=IFCCARTESIANPOINT((0.6,0.25));
#239=IFCAXIS2PLACEMENT2D(#238,$);
#240=IFCRECTANGLEPROFILEDEF(.AREA.,$,#239,1.2,0.5);
#241=IFCAXIS2PLACEMENT3D(#11,$,$);
#242=IFCEXTRUDEDAREASOLID(#240,#241,#64,2.2);
#243=IFCSHAPEREPRESENTATION(#14,'Body','SweptSolid',(#242));
#244=IFCPRODUCTDEFINITIONSHAPE($,$,(#243));
#245=IFCOPENINGELEMENT('000000000000000000000W',#5,'Opening',$,$,#237,#244,$,.OPENING.);
#246=IFCRELVOIDSELEMENT('000000000000000000000X',#5,$,$,#234,#245);
#247=IFCCARTESIANPOINT((12.,3.,0.));
#248=IFCAXIS2PLACEMENT3D(#247,#64,#61);
#249=IFCLOCALPLACEMENT(#23,#248);
#250=IFCCARTESIANPOINT((0.6,0.03));
#251=IFCAXIS2PLACEMENT2D(#250,$);
#252=IFCRECTANGLEPROFILEDEF(.AREA.,$,#251,1.2,0.06);
#253=IFCCARTESIANPOINT((0.,0.12,0.));
#254=IFCAXIS2PLACEMENT3D(#253,$,$);
#255=IFCEXTRUDEDAREASOLID(#252,#254,#64,2.2);
#256=IFCSTYLEDITEM(#255,(#36),$);
#257=IFCSHAPEREPRESENTATION(#14,'Body','SweptSolid',(#255));
#258=IFCPRODUCTDEFINITIONSHAPE($,$,(#257));
#259=IFCDOOR('000000000000000000000Y',#5,'Entrance door',$,$,#249,#258,$,2.2,1.2,.DOOR.,.SINGLE_SWING_LEFT.,$);
#260=IFCCARTESIANPOINT((12.3,0.));
#261=IFCCARTESIANPOINT((12.3,8.3));
#262=IFCCARTESIANPOINT((0.,8.3));
#263=IFCPOLYLINE((#49,#260,#261,#262,#49));
#264=IFCCARTESIANPOINT((9.,5.5));
#265=IFCCARTESIANPOINT((11.5,5.5));
#266=IFCCARTESIANPOINT((11.5,7.5));
#267=IFCCARTESIANPOINT((9.,7.5));
#268=IFCPOLYLINE((#264,#265,#266,#267,#264));
#269=IFCARBITRARYPROFILEDEFWITHVOIDS(.AREA.,$,#263,(#268));
#270=IFCCARTESIANPOINT((0.,0.,-0.25));
#271=IFCAXIS2PLACEMENT3D(#270,$,$);
#272=IFCEXTRUDEDAREASOLID(#269,#271,#64,0.25);
#273=IFCSTYLEDITEM(#272,(#42),$);
#274=IFCAXIS2PLACEMENT3D(#11,$,$);
#275=IFCLOCALPLACEMENT(#23,#274);
#276=IFCSHAPEREPRESENTATION(#14,'Body','SweptSolid',(#272));
#277=IFCPRODUCTDEFINITIONSHAPE($,$,(#276));
#278=IFCSLAB('000000000000000000000Z',#5,'Ground slab',$,$,#275,#277,$,.FLOOR.);
#279=IFCAXIS2PLACEMENT2D(#49,$);
#280=IFCCIRCLEPROFILEDEF(.AREA.,$,#279,0.18);
#281=IFCAXIS2PLACEMENT3D(#11,$,$);
#282=IFCEXTRUDEDAREASOLID(#280,#281,#64,3.2);
#283=IFCSHAPEREPRESENTATION(#14,'Body','SweptSolid',(#282));
#284=IFCAXIS2PLACEMENT3D(#11,$,$);
#285=IFCREPRESENTATIONMAP(#284,#283);
#286=IFCCARTESIANTRANSFORMATIONOPERATOR3D($,$,#11,$,$);
#287=IFCMAPPEDITEM(#285,#286);
#288=IFCCARTESIANPOINT((2.4,4.,0.));
#289=IFCAXIS2PLACEMENT3D(#288,$,$);
#290=IFCLOCALPLACEMENT(#23,#289);
#291=IFCSHAPEREPRESENTATION(#14,'Body','MappedRepresentation',(#287));
#292=IFCPRODUCTDEFINITIONSHAPE($,$,(#291));
#293=IFCCOLUMN('000000000000000000000a',#5,'Column C1',$,$,#290,#292,$,.COLUMN.);
#294=IFCSTYLEDITEM(#287,(#39),$);
#295=IFCCARTESIANTRANSFORMATIONOPERATOR3D($,$,#11,$,$);
#296=IFCMAPPEDITEM(#285,#295);
#297=IFCCARTESIANPOINT((4.8,4.,0.));
#298=IFCAXIS2PLACEMENT3D(#297,$,$);
#299=IFCLOCALPLACEMENT(#23,#298);
#300=IFCSHAPEREPRESENTATION(#14,'Body','MappedRepresentation',(#296));
#301=IFCPRODUCTDEFINITIONSHAPE($,$,(#300));
#302=IFCCOLUMN('000000000000000000000b',#5,'Column C2',$,$,#299,#301,$,.COLUMN.);
#303=IFCSTYLEDITEM(#296,(#39),$);
#304=IFCCARTESIANTRANSFORMATIONOPERATOR3D($,$,#11,$,$);
#305=IFCMAPPEDITEM(#285,#304);
#306=IFCCARTESIANPOINT((7.199999999999999,4.,0.));
#307=IFCAXIS2PLACEMENT3D(#306,$,$);
#308=IFCLOCALPLACEMENT(#23,#307);
#309=IFCSHAPEREPRESENTATION(#14,'Body','MappedRepresentation',(#305));
#310=IFCPRODUCTDEFINITIONSHAPE($,$,(#309));
#311=IFCCOLUMN('000000000000000000000c',#5,'Column C3',$,$,#308,#310,$,.COLUMN.);
#312=IFCSTYLEDITEM(#305,(#39),$);
#313=IFCCARTESIANTRANSFORMATIONOPERATOR3D($,$,#11,$,$);
#314=IFCMAPPEDITEM(#285,#313);
#315=IFCCARTESIANPOINT((9.6,4.,0.));
#316=IFCAXIS2PLACEMENT3D(#315,$,$);
#317=IFCLOCALPLACEMENT(#23,#316);
#318=IFCSHAPEREPRESENTATION(#14,'Body','MappedRepresentation',(#314));
#319=IFCPRODUCTDEFINITIONSHAPE($,$,(#318));
#320=IFCCOLUMN('000000000000000000000d',#5,'Column C4',$,$,#317,#319,$,.COLUMN.);
#321=IFCSTYLEDITEM(#314,(#39),$);
#322=IFCAXIS2PLACEMENT2D(#49,$);
#323=IFCISHAPEPROFILEDEF(.AREA.,$,#322,0.15,0.3,0.008,0.012,0.015);
#324=IFCAXIS2PLACEMENT3D(#11,#62,#61);
#325=IFCEXTRUDEDAREASOLID(#323,#324,#64,12.);
#326=IFCSTYLEDITEM(#325,(#39),$);
#327=IFCCARTESIANPOINT((0.15,1.5,3.05));
#328=IFCAXIS2PLACEMENT3D(#327,$,$);
#329=IFCLOCALPLACEMENT(#23,#328);
#330=IFCSHAPEREPRESENTATION(#14,'Body','SweptSolid',(#325));
#331=IFCPRODUCTDEFINITIONSHAPE($,$,(#330));
#332=IFCBEAM('000000000000000000000e',#5,'Beam B1',$,$,#329,#331,$,.BEAM.);
#333=IFCAXIS2PLACEMENT2D(#49,$);
#334=IFCISHAPEPROFILEDEF(.AREA.,$,#333,0.15,0.3,0.008,0.012,0.015);
#335=IFCAXIS2PLACEMENT3D(#11,#62,#61);
#336=IFCEXTRUDEDAREASOLID(#334,#335,#64,12.);
#337=IFCSTYLEDITEM(#336,(#39),$);
#338=IFCCARTESIANPOINT((0.15,4.,3.05));
#339=IFCAXIS2PLACEMENT3D(#338,$,$);
#340=IFCLOCALPLACEMENT(#23,#339);
#341=IFCSHAPEREPRESENTATION(#14,'Body','SweptSolid',(#336));
#342=IFCPRODUCTDEFINITIONSHAPE($,$,(#341));
#343=IFCBEAM('000000000000000000000f',#5,'Beam B2',$,$,#340,#342,$,.BEAM.);
#344=IFCAXIS2PLACEMENT2D(#49,$);
#345=IFCISHAPEPROFILEDEF(.AREA.,$,#344,0.15,0.3,0.008,0.012,0.015);
#346=IFCAXIS2PLACEMENT3D(#11,#62,#61);
#347=IFCEXTRUDEDAREASOLID(#345,#346,#64,12.);
#348=IFCSTYLEDITEM(#347,(#39),$);
#349=IFCCARTESIANPOINT((0.15,6.5,3.05));
#350=IFCAXIS2PLACEMENT3D(#349,$,$);
#351=IFCLOCALPLACEMENT(#23,#350);
#352=IFCSHAPEREPRESENTATION(#14,'Body','SweptSolid',(#347));
#353=IFCPRODUCTDEFINITIONSHAPE($,$,(#352));
#354=IFCBEAM('000000000000000000000g',#5,'Beam B3',$,$,#351,#353,$,.BEAM.);
#355=IFCCARTESIANPOINT((6.5,4.5));
#356=IFCAXIS2PLACEMENT2D(#355,$);
#357=IFCRECTANGLEPROFILEDEF(.AREA.,$,#356,13.,9.);
#358=IFCCARTESIANPOINT((-0.35,-0.35,0.));
#359=IFCAXIS2PLACEMENT3D(#358,$,$);
#360=IFCEXTRUDEDAREASOLID(#357,#359,#64,2.2);
#361=IFCCARTESIANPOINT((0.,4.15,1.9));
#362=IFCDIRECTION((0.,0.45,0.893));
#363=IFCAXIS2PLACEMENT3D(#361,#362,#62);
#364=IFCPLANE(#363);
#365=IFCDIRECTION((0.,-0.45,0.893));
#366=IFCAXIS2PLACEMENT3D(#361,#365,#62);
#367=IFCPLANE(#366);
#368=IFCHALFSPACESOLID(#364,.F.);
#369=IFCBOOLEANCLIPPINGRESULT(.DIFFERENCE.,#360,#368);
#370=IFCHALFSPACESOLID(#367,.F.);
#371=IFCBOOLEANCLIPPINGRESULT(.DIFFERENCE.,#369,#370);
#372=IFCCARTESIANPOINT((0.8,0.6));
#373=IFCAXIS2PLACEMENT2D(#372,$);
#374=IFCRECTANGLEPROFILEDEF(.AREA.,$,#373,1.6,1.2);
#375=IFCCARTESIANPOINT((7.2,2.3,-0.5));
#376=IFCAXIS2PLACEMENT3D(#375,$,$);
#377=IFCEXTRUDEDAREASOLID(#374,#376,#64,3.);
#378=IFCBOOLEANRESULT(.DIFFERENCE.,#371,#377);
#379=IFCSTYLEDITEM(#378,(#48),$);
#380=IFCCARTESIANPOINT((0.,0.,3.2));
#381=IFCAXIS2PLACEMENT3D(#380,$,$);
#382=IFCLOCALPLACEMENT(#23,#381);
#383=IFCSHAPEREPRESENTATION(#14,'Body','Clipping',(#378));
#384=IFCPRODUCTDEFINITIONSHAPE($,$,(#383));
#385=IFCROOF('000000000000000000000h',#5,'Pitched roof',$,$,#382,#384,$,.GABLE_ROOF.);
#386=IFCCARTESIANPOINT((1.15,0.125));
#387=IFCAXIS2PLACEMENT2D(#386,$);
#388=IFCRECTANGLEPROFILEDEF(.AREA.,$,#387,2.3,0.25);
#389=IFCCARTESIANPOINT((9.1,5.5,-0.25));
#390=IFCAXIS2PLACEMENT3D(#389,$,$);
#391=IFCEXTRUDEDAREASOLID(#388,#390,#64,0.2);
#392=IFCAXIS2PLACEMENT2D(#386,$);
#393=IFCRECTANGLEPROFILEDEF(.AREA.,$,#392,2.3,0.25);
#394=IFCCARTESIANPOINT((9.1,5.75,-0.04999999999999999));
#395=IFCAXIS2PLACEMENT3D(#394,$,$);
#396=IFCEXTRUDEDAREASOLID(#393,#395,#64,0.2);
#397=IFCAXIS2PLACEMENT2D(#386,$);
#398=IFCRECTANGLEPROFILEDEF(.AREA.,$,#397,2.3,0.25);
#399=IFCCARTESIANPOINT((9.1,6.,0.15000000000000002));
#400=IFCAXIS2PLACEMENT3D(#399,$,$);
#401=IFCEXTRUDEDAREASOLID(#398,#400,#64,0.2);
#402=IFCAXIS2PLACEMENT2D(#386,$);
#403=IFCRECTANGLEPROFILEDEF(.AREA.,$,#402,2.3,0.25);
#404=IFCCARTESIANPOINT((9.1,6.25,0.3500000000000001));
#405=IFCAXIS2PLACEMENT3D(#404,$,$);
#406=IFCEXTRUDEDAREASOLID(#403,#405,#64,0.2);
#407=IFCAXIS2PLACEMENT2D(#386,$);
#408=IFCRECTANGLEPROFILEDEF(.AREA.,$,#407,2.3,0.25);
#409=IFCCARTESIANPOINT((9.1,6.5,0.55));
#410=IFCAXIS2PLACEMENT3D(#409,$,$);
#411=IFCEXTRUDEDAREASOLID(#408,#410,#64,0.2);
#412=IFCAXIS2PLACEMENT2D(#386,$);
#413=IFCRECTANGLEPROFILEDEF(.AREA.,$,#412,2.3,0.25);
#414=IFCCARTESIANPOINT((9.1,6.75,0.75));
#415=IFCAXIS2PLACEMENT3D(#414,$,$);
#416=IFCEXTRUDEDAREASOLID(#413,#415,#64,0.2);
#417=IFCAXIS2PLACEMENT2D(#386,$);
#418=IFCRECTANGLEPROFILEDEF(.AREA.,$,#417,2.3,0.25);
#419=IFCCARTESIANPOINT((9.1,7.,0.9500000000000002));
#420=IFCAXIS2PLACEMENT3D(#419,$,$);
#421=IFCEXTRUDEDAREASOLID(#418,#420,#64,0.2);
#422=IFCAXIS2PLACEMENT2D(#386,$);
#423=IFCRECTANGLEPROFILEDEF(.AREA.,$,#422,2.3,0.25);
#424=IFCCARTESIANPOINT((9.1,7.25,1.1500000000000001));
#425=IFCAXIS2PLACEMENT3D(#424,$,$);
#426=IFCEXTRUDEDAREASOLID(#423,#425,#64,0.2);
#427=IFCCARTESIANPOINT((9.1,7.5,1.35));
#428=IFCCARTESIANPOINT((11.4,7.5,1.35));
#429=IFCCARTESIANPOINT((11.4,8.,1.35));
#430=IFCCARTESIANPOINT((9.1,8.,1.35));
#431=IFCCARTESIANPOINT((9.1,7.5,1.55));
#432=IFCCARTESIANPOINT((11.4,7.5,1.55));
#433=IFCCARTESIANPOINT((11.4,8.,1.55));
#434=IFCCARTESIANPOINT((9.1,8.,1.55));
#435=IFCPOLYLOOP((#427,#430,#429,#428));
#436=IFCFACEOUTERBOUND(#435,.T.);
#437=IFCFACE((#436));
#438=IFCPOLYLOOP((#431,#432,#433,#434));
#439=IFCFACEOUTERBOUND(#438,.T.);
#440=IFCFACE((#439));
#441=IFCPOLYLOOP((#427,#428,#432,#431));
#442=IFCFACEOUTERBOUND(#441,.T.);
#443=IFCFACE((#442));
#444=IFCPOLYLOOP((#428,#429,#433,#432));
#445=IFCFACEOUTERBOUND(#444,.T.);
#446=IFCFACE((#445));
#447=IFCPOLYLOOP((#429,#430,#434,#433));
#448=IFCFACEOUTERBOUND(#447,.T.);
#449=IFCFACE((#448));
#450=IFCPOLYLOOP((#430,#427,#431,#434));
#451=IFCFACEOUTERBOUND(#450,.T.);
#452=IFCFACE((#451));
#453=IFCCLOSEDSHELL((#437,#440,#443,#446,#449,#452));
#454=IFCFACETEDBREP(#453);
#455=IFCSTYLEDITEM(#391,(#42),$);
#456=IFCSTYLEDITEM(#396,(#42),$);
#457=IFCSTYLEDITEM(#401,(#42),$);
#458=IFCSTYLEDITEM(#406,(#42),$);
#459=IFCSTYLEDITEM(#411,(#42),$);
#460=IFCSTYLEDITEM(#416,(#42),$);
#461=IFCSTYLEDITEM(#421,(#42),$);
#462=IFCSTYLEDITEM(#426,(#42),$);
#463=IFCSTYLEDITEM(#454,(#42),$);
#464=IFCAXIS2PLACEMENT3D(#11,$,$);
#465=IFCLOCALPLACEMENT(#23,#464);
#466=IFCSHAPEREPRESENTATION(#14,'Body','Brep',(#391,#396,#401,#406,#411,#416,#421,#426,#454));
#467=IFCPRODUCTDEFINITIONSHAPE($,$,(#466));
#468=IFCSTAIRFLIGHT('000000000000000000000i',#5,'Stair to terrace',$,$,#465,#467,$,8,8,0.2,0.25,.STRAIGHT.);
#469=IFCCARTESIANPOINT((9.05,5.4,0.9));
#470=IFCCARTESIANPOINT((9.05,7.4,2.5));
#471=IFCCARTESIANPOINT((11.4,7.4,2.5));
#472=IFCPOLYLINE((#469,#470,#471));
#473=IFCSWEPTDISKSOLID(#472,0.025,$,$,$);
#474=IFCSTYLEDITEM(#473,(#39),$);
#475=IFCAXIS2PLACEMENT3D(#11,$,$);
#476=IFCLOCALPLACEMENT(#23,#475);
#477=IFCSHAPEREPRESENTATION(#14,'Body','AdvancedSweptSolid',(#473));
#478=IFCPRODUCTDEFINITIONSHAPE($,$,(#477));
#479=IFCRAILING('000000000000000000000j',#5,'Stair handrail',$,$,#476,#478,$,.HANDRAIL.);
#480=IFCCARTESIANPOINT((0.6,0.6,0.2));
#481=IFCCARTESIANPOINT((0.6,7.2,0.2));
#482=IFCCARTESIANPOINT((0.6,7.2,2.8));
#483=IFCCARTESIANPOINT((6.,7.2,2.8));
#484=IFCPOLYLINE((#480,#481,#482,#483));
#485=IFCSWEPTDISKSOLIDPOLYGONAL(#484,0.05,0.042,$,$,0.25);
#486=IFCSTYLEDITEM(#485,(#45),$);
#487=IFCAXIS2PLACEMENT3D(#11,$,$);
#488=IFCLOCALPLACEMENT(#23,#487);
#489=IFCSHAPEREPRESENTATION(#14,'Body','AdvancedSweptSolid',(#485));
#490=IFCPRODUCTDEFINITIONSHAPE($,$,(#489));
#491=IFCPIPESEGMENT('000000000000000000000k',#5,'Supply pipe 1',$,$,#488,#490,$,.RIGIDSEGMENT.);
#492=IFCCARTESIANPOINT((0.6,0.85,0.2));
#493=IFCCARTESIANPOINT((0.6,7.45,0.2));
#494=IFCCARTESIANPOINT((0.6,7.45,2.8));
#495=IFCCARTESIANPOINT((6.,7.45,2.8));
#496=IFCPOLYLINE((#492,#493,#494,#495));
#497=IFCSWEPTDISKSOLIDPOLYGONAL(#496,0.05,0.042,$,$,0.25);
#498=IFCSTYLEDITEM(#497,(#45),$);
#499=IFCAXIS2PLACEMENT3D(#11,$,$);
#500=IFCLOCALPLACEMENT(#23,#499);
#501=IFCSHAPEREPRESENTATION(#14,'Body','AdvancedSweptSolid',(#497));
#502=IFCPRODUCTDEFINITIONSHAPE($,$,(#501));
#503=IFCPIPESEGMENT('000000000000000000000l',#5,'Supply pipe 2',$,$,#500,#502,$,.RIGIDSEGMENT.);
#504=IFCAXIS2PLACEMENT2D(#49,$);
#505=IFCCIRCLEPROFILEDEF(.AREA.,$,#504,0.6);
#506=IFCCARTESIANPOINT((0.,0.,0.72));
#507=IFCAXIS2PLACEMENT3D(#506,$,$);
#508=IFCEXTRUDEDAREASOLID(#505,#507,#64,0.04);
#509=IFCCARTESIANPOINT((0.25,0.));
#510=IFCCARTESIANPOINT((0.25,0.03));
#511=IFCCARTESIANPOINT((0.04,0.08));
#512=IFCCARTESIANPOINT((0.03,0.72));
#513=IFCCARTESIANPOINT((0.,0.72));
#514=IFCPOLYLINE((#49,#509,#510,#511,#512,#513,#49));
#515=IFCARBITRARYCLOSEDPROFILEDEF(.AREA.,$,#514);
#516=IFCAXIS2PLACEMENT3D(#11,#62,#61);
#517=IFCAXIS1PLACEMENT(#11,#61);
#518=IFCREVOLVEDAREASOLID(#515,#516,#517,6.283185307179586);
#519=IFCSTYLEDITEM(#508,(#36),$);
#520=IFCSTYLEDITEM(#518,(#39),$);
#521=IFCCARTESIANPOINT((4.,2.2,0.));
#522=IFCAXIS2PLACEMENT3D(#521,$,$);
#523=IFCLOCALPLACEMENT(#23,#522);
#524=IFCSHAPEREPRESENTATION(#14,'Body','SweptSolid',(#508,#518));
#525=IFCPRODUCTDEFINITIONSHAPE($,$,(#524));
#526=IFCFURNITURE('000000000000000000000m',#5,'Round table',$,$,#523,#525,$,$,.TABLE.);
#527=IFCCARTESIANPOINTLIST3D(((0.,0.,0.),(2.,0.,0.),(2.,0.4,0.),(0.,0.4,0.),(0.,0.,0.45),(2.,0.,0.45),(2.,0.4,0.45),(0.,0.4,0.45)),$);
#528=IFCTRIANGULATEDFACESET(#527,$,.T.,((1,4,3),(1,3,2),(5,6,7),(5,7,8),(1,2,6),(1,6,5),(2,3,7),(2,7,6),(3,4,8),(3,8,7),(4,1,5),(4,5,8)),$);
#529=IFCCOLOURRGBLIST(((0.62,0.45,0.3),(0.3,0.3,0.3)));
#530=IFCINDEXEDCOLOURMAP(#528,1.,#529,(2,2,1,1,2,2,2,2,2,2,2,2));
#531=IFCCARTESIANPOINT((1.5,6.5,0.));
#532=IFCAXIS2PLACEMENT3D(#531,$,$);
#533=IFCLOCALPLACEMENT(#23,#532);
#534=IFCSHAPEREPRESENTATION(#14,'Body','Tessellation',(#528));
#535=IFCPRODUCTDEFINITIONSHAPE($,$,(#534));
#536=IFCFURNITURE('000000000000000000000n',#5,'Bench',$,$,#533,#535,$,$,.BENCH.);
#537=IFCAXIS2PLACEMENT3D(#11,$,$);
#538=IFCLOCALPLACEMENT(#23,#537);
#539=IFCCARTESIANPOINT((4.3,3.85));
#540=IFCAXIS2PLACEMENT2D(#539,$);
#541=IFCRECTANGLEPROFILEDEF(.AREA.,$,#540,8.6,7.7);
#542=IFCCARTESIANPOINT((0.3,0.3,0.));
#543=IFCAXIS2PLACEMENT3D(#542,$,$);
#544=IFCEXTRUDEDAREASOLID(#541,#543,#64,3.);
#545=IFCSHAPEREPRESENTATION(#14,'Body','SweptSolid',(#544));
#546=IFCPRODUCTDEFINITIONSHAPE($,$,(#545));
#547=IFCSPACE('000000000000000000000o',#5,'Hall',$,$,#538,#546,$,'Main hall',.ELEMENT.,.INTERNAL.,$);
#548=IFCAXIS2PLACEMENT3D(#11,$,$);
#549=IFCLOCALPLACEMENT(#23,#548);
#550=IFCCARTESIANPOINT((1.4,3.85));
#551=IFCAXIS2PLACEMENT2D(#550,$);
#552=IFCRECTANGLEPROFILEDEF(.AREA.,$,#551,2.8,7.7);
#553=IFCCARTESIANPOINT((8.9,0.3,0.));
#554=IFCAXIS2PLACEMENT3D(#553,$,$);
#555=IFCEXTRUDEDAREASOLID(#552,#554,#64,3.);
#556=IFCSHAPEREPRESENTATION(#14,'Body','SweptSolid',(#555));
#557=IFCPRODUCTDEFINITIONSHAPE($,$,(#556));
#558=IFCSPACE('000000000000000000000p',#5,'Stairwell',$,$,#549,#557,$,'Stairwell',.ELEMENT.,.INTERNAL.,$);
#559=IFCCARTESIANPOINTLIST3D(((-8.,-8.,-2.081927990749121),(-5.666666666666666,-8.,-1.403075691962992),(-3.333333333333333,-8.,-0.9525184660409763),(-1.,-8.,-0.7274345781700111),(1.333333333333334,-8.,-0.6534881089522263),(3.666666666666666,-8.,-0.6252835059945608),(6.,-8.,-0.5727317385067184),(8.333333333333332,-8.,-0.5059622238166273),(10.666666666666668,-8.,-0.5051455120949456),(13.,-8.,-0.6623333864966603),(15.333333333333332,-8.,-1.019925963517349),(17.666666666666668,-8.,-1.5519792283713287),(20.,-8.,-2.1996403383570997),(-8.,-6.,-1.6463258077293086),(-5.666666666666666,-6.,-1.038600971816296),(-3.333333333333333,-6.,-0.6484531650883326),(-1.,-6.,-0.4664145988479358),(1.333333333333334,-6.,-0.4234636662684401),(3.666666666666666,-6.,-0.4219064095088142),(6.,-6.,-0.3909251457101718),(8.333333333333332,-6.,-0.33064445905825357),(10.666666666666668,-6.,-0.3100049900206567),(13.,-6.,-0.41662246101366346),(15.333333333333332,-6.,-0.7000092628975351),(17.666666666666668,-6.,-1.1524886782972437),(20.,-6.,-1.7363571771441872),(-8.,-4.,-1.315174421225044),(-5.666666666666666,-4.,-0.8136626000663644),(-3.333333333333333,-4.,-0.4969782307887722),(-1.,-4.,-0.3444306429543593),(1.333333333333334,-4.,-0.3037303786379338),(3.666666666666666,-4.,-0.3),(6.,-4.,-0.3),(8.333333333333332,-4.,-0.3),(10.666666666666668,-4.,-0.2971338223222478),(13.,-4.,-0.3333655794062389),(15.333333333333332,-4.,-0.5084352905448865),(17.666666666666668,-4.,-0.8389713087174318),(20.,-4.,-1.3351816526320521),(-8.,-2.,-1.0766433637779862),(-5.666666666666666,-2.,-0.6867968898996013),(-3.333333333333333,-2.,-0.4468233296705639),(-1.,-2.,-0.3066482929566737),(1.333333333333334,-2.,-0.3),(3.666666666666666,-2.,-0.3),(6.,-2.,-0.3),(8.333333333333332,-2.,-0.3),(10.666666666666668,-2.,-0.3),(13.,-2.,-0.313863859316884),(15.333333333333332,-2.,-0.41279291714879246),(17.666666666666668,-2.,-0.6116235195827098),(20.,-2.,-1.0172167436247936),(-8.,0.,-0.9183208797180271),(-5.666666666666666,0.,-0.6107903959379765),(-3.333333333333333,0.,-0.4367608507140278),(-1.,0.,-0.3),(1.333333333333334,0.,-0.3),(3.666666666666666,0.,-0.3),(6.,0.,-0.3),(8.333333333333332,0.,-0.3),(10.666666666666668,0.,-0.3),(13.,0.,-0.3),(15.333333333333332,0.,-0.3732480006632234),(17.666666666666668,0.,-0.4704901573294731),(20.,0.,-0.8074096760292344),(-8.,2.,-0.828831175456858),(-5.666666666666666,2.,-0.548981011869352),(-3.333333333333333,2.,-0.36561117560501),(-1.,2.,-0.3),(1.333333333333334,2.,-0.3),(3.666666666666666,2.,-0.3),(6.,2.,-0.3),(8.333333333333332,2.,-0.3),(10.666666666666668,2.,-0.3),(13.,2.,-0.3),(15.333333333333332,2.,-0.33119497439000073),(17.666666666666668,2.,-0.40953929943851686),(20.,2.,-0.7185986603626673),(-8.,4.,-0.8),(-5.666666666666666,4.,-0.48830636151329126),(-3.333333333333333,4.,-0.32131979579722364),(-1.,4.,-0.3),(1.333333333333334,4.,-0.3),(3.666666666666666,4.,-0.3),(6.,4.,-0.3),(8.333333333333332,4.,-0.3),(10.666666666666668,4.,-0.3),(13.,4.,-0.3),(15.333333333333332,4.,-0.3103040441047945),(17.666666666666668,4.,-0.4153047914532055),(20.,4.,-0.7422902477797703),(-8.,6.,-0.828831175456858),(-5.666666666666666,6.,-0.443422786173043),(-3.333333333333333,6.,-0.29406159699657414),(-1.,6.,-0.3),(1.333333333333334,6.,-0.3),(3.666666666666666,6.,-0.3),(6.,6.,-0.3),(8.333333333333332,6.,-0.3),(10.666666666666668,6.,-0.3),(13.,6.,-0.3),(15.333333333333332,6.,-0.30091620898477617),(17.666666666666668,6.,-0.4711951375639627),(20.,6.,-0.8507859843195159),(-8.,8.,-0.9183208797180271),(-5.666666666666666,8.,-0.44931962748310705),(-3.333333333333333,8.,-0.2360171722022855),(-1.,8.,-0.3),(1.333333333333334,8.,-0.3),(3.666666666666666,8.,-0.3),(6.,8.,-0.3),(8.333333333333332,8.,-0.3),(10.666666666666668,8.,-0.3),(13.,8.,-0.3),(15.333333333333332,8.,-0.28829612720072584),(17.666666666666668,8.,-0.5648041295109217),(20.,8.,-1.0096145600021131),(-8.,10.,-1.0766433637779862),(-5.666666666666666,10.,-0.5453558041408513),(-3.333333333333333,10.,-0.27098095200923417),(-1.,10.,-0.28970612098974385),(1.333333333333334,10.,-0.3),(3.666666666666666,10.,-0.3),(6.,10.,-0.3),(8.333333333333332,10.,-0.3),(10.666666666666668,10.,-0.3),(13.,10.,-0.27541553564914345),(15.333333333333332,10.,-0.3383789205179786),(17.666666666666668,10.,-0.6942382910067592),(20.,10.,-1.1943390711427906),(-8.,12.,-1.315174421225044),(-5.666666666666666,12.,-0.7587731497140033),(-3.333333333333333,12.,-0.4287385718049215),(-1.,12.,-0.31448318879521553),(1.333333333333334,12.,-0.31184308201864835),(3.666666666666666,12.,-0.3),(6.,12.,-0.3),(8.333333333333332,12.,-0.3),(10.666666666666668,12.,-0.28258355225049125),(13.,12.,-0.2654032536322408),(15.333333333333332,12.,-0.4795572361119994),(17.666666666666668,12.,-0.871031861491939),(20.,12.,-1.403918025450742),(-8.,14.,-1.6463258077293086),(-5.666666666666666,14.,-1.0960785230423595),(-3.333333333333333,14.,-0.7199104026761505),(-1.,14.,-0.4977741100012177),(1.333333333333334,14.,-0.3909931981465725),(3.666666666666666,14.,-0.35017896503759677),(6.,14.,-0.3342226248682608),(8.333333333333332,14.,-0.331878199166657),(10.666666666666668,14.,-0.3682413211618455),(13.,14.,-0.4877892888110086),(15.333333333333332,14.,-0.7302489508944093),(17.666666666666668,14.,-1.118916433492402),(20.,14.,-1.664379805091488),(-8.,16.,-2.081927990749121),(-5.666666666666666,16.,-1.5458876543143505),(-3.333333333333333,16.,-1.1300651448127748),(-1.,16.,-0.8053521865344516),(1.333333333333334,16.,-0.5728101543067197),(3.666666666666666,16.,-0.4470654559754494),(6.,16.,-0.4318454603169459),(8.333333333333332,16.,-0.5090276440051056),(10.666666666666668,16.,-0.6498427817769108),(13.,16.,-0.8391584967398983),(15.333333333333332,16.,-1.0950611961708956),(17.666666666666668,16.,-1.4685637372996507),(20.,16.,-2.020801304186858)),$);
#560=IFCTRIANGULATEDFACESET(#559,$,.F.,((1,2,15),(1,15,14),(2,3,16),(2,16,15),(3,4,17),(3,17,16),(4,5,18),(4,18,17),(5,6,19),(5,19,18),(6,7,20),(6,20,19),(7,8,21),(7,21,20),(8,9,22),(8,22,21),(9,10,23),(9,23,22),(10,11,24),(10,24,23),(11,12,25),(11,25,24),(12,13,26),(12,26,25),(14,15,28),(14,28,27),(15,16,29),(15,29,28),(16,17,30),(16,30,29),(17,18,31),(17,31,30),(18,19,32),(18,32,31),(19,20,33),(19,33,32),(20,21,34),(20,34,33),(21,22,35),(21,35,34),(22,23,36),(22,36,35),(23,24,37),(23,37,36),(24,25,38),(24,38,37),(25,26,39),(25,39,38),(27,28,41),(27,41,40),(28,29,42),(28,42,41),(29,30,43),(29,43,42),(30,31,44),(30,44,43),(31,32,45),(31,45,44),(32,33,46),(32,46,45),(33,34,47),(33,47,46),(34,35,48),(34,48,47),(35,36,49),(35,49,48),(36,37,50),(36,50,49),(37,38,51),(37,51,50),(38,39,52),(38,52,51),(40,41,54),(40,54,53),(41,42,55),(41,55,54),(42,43,56),(42,56,55),(43,44,57),(43,57,56),(44,45,58),(44,58,57),(45,46,59),(45,59,58),(46,47,60),(46,60,59),(47,48,61),(47,61,60),(48,49,62),(48,62,61),(49,50,63),(49,63,62),(50,51,64),(50,64,63),(51,52,65),(51,65,64),(53,54,67),(53,67,66),(54,55,68),(54,68,67),(55,56,69),(55,69,68),(56,57,70),(56,70,69),(57,58,71),(57,71,70),(58,59,72),(58,72,71),(59,60,73),(59,73,72),(60,61,74),(60,74,73),(61,62,75),(61,75,74),(62,63,76),(62,76,75),(63,64,77),(63,77,76),(64,65,78),(64,78,77),(66,67,80),(66,80,79),(67,68,81),(67,81,80),(68,69,82),(68,82,81),(69,70,83),(69,83,82),(70,71,84),(70,84,83),(71,72,85),(71,85,84),(72,73,86),(72,86,85),(73,74,87),(73,87,86),(74,75,88),(74,88,87),(75,76,89),(75,89,88),(76,77,90),(76,90,89),(77,78,91),(77,91,90),(79,80,93),(79,93,92),(80,81,94),(80,94,93),(81,82,95),(81,95,94),(82,83,96),(82,96,95),(83,84,97),(83,97,96),(84,85,98),(84,98,97),(85,86,99),(85,99,98),(86,87,100),(86,100,99),(87,88,101),(87,101,100),(88,89,102),(88,102,101),(89,90,103),(89,103,102),(90,91,104),(90,104,103),(92,93,106),(92,106,105),(93,94,107),(93,107,106),(94,95,108),(94,108,107),(95,96,109),(95,109,108),(96,97,110),(96,110,109),(97,98,111),(97,111,110),(98,99,112),(98,112,111),(99,100,113),(99,113,112),(100,101,114),(100,114,113),(101,102,115),(101,115,114),(102,103,116),(102,116,115),(103,104,117),(103,117,116),(105,106,119),(105,119,118),(106,107,120),(106,120,119),(107,108,121),(107,121,120),(108,109,122),(108,122,121),(109,110,123),(109,123,122),(110,111,124),(110,124,123),(111,112,125),(111,125,124),(112,113,126),(112,126,125),(113,114,127),(113,127,126),(114,115,128),(114,128,127),(115,116,129),(115,129,128),(116,117,130),(116,130,129),(118,119,132),(118,132,131),(119,120,133),(119,133,132),(120,121,134),(120,134,133),(121,122,135),(121,135,134),(122,123,136),(122,136,135),(123,124,137),(123,137,136),(124,125,138),(124,138,137),(125,126,139),(125,139,138),(126,127,140),(126,140,139),(127,128,141),(127,141,140),(128,129,142),(128,142,141),(129,130,143),(129,143,142),(131,132,145),(131,145,144),(132,133,146),(132,146,145),(133,134,147),(133,147,146),(134,135,148),(134,148,147),(135,136,149),(135,149,148),(136,137,150),(136,150,149),(137,138,151),(137,151,150),(138,139,152),(138,152,151),(139,140,153),(139,153,152),(140,141,154),(140,154,153),(141,142,155),(141,155,154),(142,143,156),(142,156,155),(144,145,158),(144,158,157),(145,146,159),(145,159,158),(146,147,160),(146,160,159),(147,148,161),(147,161,160),(148,149,162),(148,162,161),(149,150,163),(149,163,162),(150,151,164),(150,164,163),(151,152,165),(151,165,164),(152,153,166),(152,166,165),(153,154,167),(153,167,166),(154,155,168),(154,168,167),(155,156,169),(155,169,168)),$);
#561=IFCCOLOURRGB($,0.52,0.64,0.42);
#562=IFCSURFACESTYLERENDERING(#561,0.,$,$,$,$,$,$,.NOTDEFINED.);
#563=IFCSURFACESTYLE($,.BOTH.,(#562));
#564=IFCSTYLEDITEM(#560,(#563),$);
#565=IFCAXIS2PLACEMENT3D(#11,$,$);
#566=IFCLOCALPLACEMENT($,#565);
#567=IFCSHAPEREPRESENTATION(#14,'Body','Tessellation',(#560));
#568=IFCPRODUCTDEFINITIONSHAPE($,$,(#567));
#569=IFCGEOGRAPHICELEMENT('000000000000000000000q',#5,'Terrain',$,$,#566,#568,$,.TERRAIN.);
#570=IFCRELCONTAINEDINSPATIALSTRUCTURE('000000000000000000000r',#5,$,$,(#91,#165,#221,#234,#111,#131,#151,#185,#205,#293,#302,#311,#320,#278,#385,#468,#479,#491,#503,#526,#536,#332,#343,#354,#259),#24);
#571=IFCRELAGGREGATES('000000000000000000000s',#5,$,$,#24,(#547,#558));
#572=IFCRELCONTAINEDINSPATIALSTRUCTURE('000000000000000000000t',#5,$,$,(#569),#18);
#573=IFCPROPERTYSINGLEVALUE('IsExternal',$,IFCBOOLEAN(.T.),$);
#574=IFCPROPERTYSINGLEVALUE('LoadBearing',$,IFCBOOLEAN(.T.),$);
#575=IFCPROPERTYSINGLEVALUE('FireRating',$,IFCLABEL('REI 60'),$);
#576=IFCPROPERTYSINGLEVALUE('ThermalTransmittance',$,IFCTHERMALTRANSMITTANCEMEASURE(0.21),$);
#577=IFCPROPERTYSET('000000000000000000000u',#5,'Pset_WallCommon',$,(#573,#574,#575,#576));
#578=IFCRELDEFINESBYPROPERTIES('000000000000000000000v',#5,$,$,(#91,#165,#221,#234),#577);
#579=IFCQUANTITYLENGTH('Length',$,$,12.,$);
#580=IFCQUANTITYLENGTH('Height',$,$,3.2,$);
#581=IFCQUANTITYLENGTH('Width',$,$,0.3,$);
#582=IFCELEMENTQUANTITY('000000000000000000000w',#5,'Qto_WallBaseQuantities',$,$,(#579,#580,#581));
#583=IFCRELDEFINESBYPROPERTIES('000000000000000000000x',#5,$,$,(#91),#582);
#584=IFCQUANTITYLENGTH('Length',$,$,12.,$);
#585=IFCQUANTITYLENGTH('Height',$,$,3.2,$);
#586=IFCQUANTITYLENGTH('Width',$,$,0.3,$);
#587=IFCELEMENTQUANTITY('000000000000000000000y',#5,'Qto_WallBaseQuantities',$,$,(#584,#585,#586));
#588=IFCRELDEFINESBYPROPERTIES('000000000000000000000z',#5,$,$,(#165),#587);
#589=IFCQUANTITYLENGTH('Length',$,$,12.,$);
#590=IFCQUANTITYLENGTH('Height',$,$,3.2,$);
#591=IFCQUANTITYLENGTH('Width',$,$,0.3,$);
#592=IFCELEMENTQUANTITY('000000000000000000000_',#5,'Qto_WallBaseQuantities',$,$,(#589,#590,#591));
#593=IFCRELDEFINESBYPROPERTIES('000000000000000000000$',#5,$,$,(#221),#592);
#594=IFCQUANTITYLENGTH('Length',$,$,12.,$);
#595=IFCQUANTITYLENGTH('Height',$,$,3.2,$);
#596=IFCQUANTITYLENGTH('Width',$,$,0.3,$);
#597=IFCELEMENTQUANTITY('0000000000000000000010',#5,'Qto_WallBaseQuantities',$,$,(#594,#595,#596));
#598=IFCRELDEFINESBYPROPERTIES('0000000000000000000011',#5,$,$,(#234),#597);
#599=IFCPROPERTYSINGLEVALUE('Reference',$,IFCIDENTIFIER('CHS 360'),$);
#600=IFCPROPERTYSINGLEVALUE('LoadBearing',$,IFCBOOLEAN(.T.),$);
#601=IFCPROPERTYSET('0000000000000000000012',#5,'Pset_ColumnCommon',$,(#599,#600));
#602=IFCRELDEFINESBYPROPERTIES('0000000000000000000013',#5,$,$,(#293,#302,#311,#320),#601);
#603=IFCPROPERTYSINGLEVALUE('IsExternal',$,IFCBOOLEAN(.F.),$);
#604=IFCPROPERTYSINGLEVALUE('PubliclyAccessible',$,IFCBOOLEAN(.T.),$);
#605=IFCPROPERTYSET('0000000000000000000014',#5,'Pset_SpaceCommon',$,(#603,#604));
#606=IFCRELDEFINESBYPROPERTIES('0000000000000000000015',#5,$,$,(#547,#558),#605);
#607=IFCQUANTITYAREA('GrossArea',$,$,97.1,$);
#608=IFCQUANTITYVOLUME('NetVolume',$,$,23.1,$);
#609=IFCELEMENTQUANTITY('0000000000000000000016',#5,'Qto_SlabBaseQuantities',$,$,(#607,#608));
#610=IFCRELDEFINESBYPROPERTIES('0000000000000000000017',#5,$,$,(#278),#609);
#611=IFCMATERIAL('Concrete C30/37',$,'concrete c30/37');
#612=IFCSTYLEDITEM($,(#42),$);
#613=IFCSTYLEDREPRESENTATION(#13,$,$,(#612));
#614=IFCMATERIALDEFINITIONREPRESENTATION($,$,(#613),#611);
#615=IFCMATERIAL('Steel S355',$,'steel s355');
#616=IFCSTYLEDITEM($,(#39),$);
#617=IFCSTYLEDREPRESENTATION(#13,$,$,(#616));
#618=IFCMATERIALDEFINITIONREPRESENTATION($,$,(#617),#615);
#619=IFCMATERIAL('Lime plaster on brick',$,'lime plaster on brick');
#620=IFCSTYLEDITEM($,(#30),$);
#621=IFCSTYLEDREPRESENTATION(#13,$,$,(#620));
#622=IFCMATERIALDEFINITIONREPRESENTATION($,$,(#621),#619);
#623=IFCMATERIALLAYER(#619,0.3,$,'Masonry',$,$,$);
#624=IFCMATERIALLAYERSET((#623),'External wall 300',$);
#625=IFCMATERIALLAYERSETUSAGE(#624,.AXIS2.,.POSITIVE.,0.,$);
#626=IFCRELASSOCIATESMATERIAL('0000000000000000000018',#5,$,$,(#91,#165,#221,#234),#625);
#627=IFCRELASSOCIATESMATERIAL('0000000000000000000019',#5,$,$,(#278,#468),#611);
#628=IFCRELASSOCIATESMATERIAL('000000000000000000001A',#5,$,$,(#293,#302,#311,#320,#332,#343,#354,#479),#615);
#629=IFCCLASSIFICATION($,'2015',$,'Uniclass 2015',$,$,$);
#630=IFCCLASSIFICATIONREFERENCE($,'EF_25_10','Walls',#629,$,$);
#631=IFCRELASSOCIATESCLASSIFICATION('000000000000000000001B',#5,$,$,(#91,#165,#221,#234),#630);
#632=IFCWALLTYPE('000000000000000000001C',#5,'External wall 300',$,$,$,$,$,$,.STANDARD.);
#633=IFCRELDEFINESBYTYPE('000000000000000000001D',#5,$,$,(#91,#165,#221,#234),#632);
ENDSEC;
END-ISO-10303-21;
